<svg width="108" height="28" viewBox="0 0 108 28" fill="none" xmlns="http://www.w3.org/2000/svg">
<path d="M0 8C0 3.58172 3.58172 0 8 0H100C104.418 0 108 3.58172 108 8V20C108 24.4183 104.418 28 100 28H8C3.58172 28 0 24.4183 0 20V8Z" fill="#B9F4C3"/>
<path d="M13.9102 7.32307C14.091 7.0403 14.447 6.9256 14.7589 7.04963C15.0708 7.17374 15.2507 7.50213 15.1876 7.83186L14.4767 11.5496H17.8184C18.4492 11.5499 18.8314 12.2466 18.4933 12.7791L13.4796 20.6756C13.2987 20.9599 12.9408 21.0755 12.628 20.95C12.3153 20.8245 12.1363 20.4934 12.2022 20.1629L13.1456 15.45H10.1827C9.55101 15.45 9.16817 14.7521 9.5079 14.2196L13.9102 7.32307Z" fill="#042F0A"/>
<path d="M28.8608 18V9.27273H34.4517V10.598H30.4418V12.9673H34.0682V14.2926H30.4418V18H28.8608ZM37.6488 18.1321C37.234 18.1321 36.8604 18.0582 36.5281 17.9105C36.1985 17.7599 35.9371 17.5384 35.744 17.2457C35.5536 16.9531 35.4585 16.5923 35.4585 16.1634C35.4585 15.794 35.5266 15.4886 35.663 15.2472C35.7994 15.0057 35.9854 14.8125 36.2212 14.6676C36.457 14.5227 36.7227 14.4134 37.0181 14.3395C37.3164 14.2628 37.6246 14.2074 37.9428 14.1733C38.3263 14.1335 38.6374 14.098 38.8761 14.0668C39.1147 14.0327 39.288 13.9815 39.396 13.9134C39.5067 13.8423 39.5621 13.733 39.5621 13.5852V13.5597C39.5621 13.2386 39.467 12.9901 39.2766 12.8139C39.0863 12.6378 38.8121 12.5497 38.4542 12.5497C38.0763 12.5497 37.7766 12.6321 37.555 12.7969C37.3363 12.9616 37.1886 13.1562 37.1119 13.3807L35.6715 13.1761C35.7852 12.7784 35.9727 12.446 36.234 12.179C36.4954 11.9091 36.815 11.7074 37.1928 11.5739C37.5707 11.4375 37.9883 11.3693 38.4457 11.3693C38.761 11.3693 39.0749 11.4062 39.3874 11.4801C39.6999 11.554 39.9854 11.6761 40.244 11.8466C40.5025 12.0142 40.7099 12.2429 40.8661 12.5327C41.0252 12.8224 41.1048 13.1847 41.1048 13.6193V18H39.6218V17.1009H39.5707C39.4769 17.2827 39.3448 17.4531 39.1744 17.6122C39.0067 17.7685 38.7951 17.8949 38.5394 17.9915C38.2866 18.0852 37.9897 18.1321 37.6488 18.1321ZM38.0494 16.9986C38.359 16.9986 38.6275 16.9375 38.8548 16.8153C39.082 16.6903 39.2567 16.5256 39.3789 16.321C39.5039 16.1165 39.5664 15.8935 39.5664 15.652V14.8807C39.5181 14.9205 39.4357 14.9574 39.3192 14.9915C39.2056 15.0256 39.0778 15.0554 38.9357 15.081C38.7937 15.1065 38.6531 15.1293 38.5138 15.1491C38.3746 15.169 38.2539 15.1861 38.1516 15.2003C37.9215 15.2315 37.7156 15.2827 37.5337 15.3537C37.3519 15.4247 37.2085 15.5241 37.1033 15.652C36.9982 15.777 36.9457 15.9389 36.9457 16.1378C36.9457 16.4219 37.0494 16.6364 37.2567 16.7812C37.4641 16.9261 37.7283 16.9986 38.0494 16.9986ZM47.8292 13.1847L46.4229 13.3381C46.3832 13.196 46.3136 13.0625 46.2141 12.9375C46.1175 12.8125 45.9869 12.7116 45.8221 12.6349C45.6573 12.5582 45.4556 12.5199 45.217 12.5199C44.896 12.5199 44.6261 12.5895 44.4073 12.7287C44.1914 12.8679 44.0849 13.0483 44.0877 13.2699C44.0849 13.4602 44.1545 13.6151 44.2965 13.7344C44.4414 13.8537 44.68 13.9517 45.0124 14.0284L46.1289 14.267C46.7482 14.4006 47.2085 14.6122 47.5096 14.902C47.8136 15.1918 47.967 15.571 47.9698 16.0398C47.967 16.4517 47.8462 16.8153 47.6076 17.1307C47.3718 17.4432 47.0437 17.6875 46.6232 17.8636C46.2028 18.0398 45.7198 18.1278 45.1744 18.1278C44.3732 18.1278 43.7283 17.9602 43.2397 17.625C42.7511 17.2869 42.4599 16.8168 42.3661 16.2145L43.8704 16.0696C43.9386 16.3651 44.0835 16.5881 44.305 16.7386C44.5266 16.8892 44.815 16.9645 45.1701 16.9645C45.5366 16.9645 45.8306 16.8892 46.0522 16.7386C46.2766 16.5881 46.3888 16.402 46.3888 16.1804C46.3888 15.9929 46.3164 15.8381 46.1715 15.7159C46.0295 15.5937 45.8079 15.5 45.5067 15.4347L44.3903 15.2003C43.7624 15.0696 43.2979 14.8494 42.9968 14.5398C42.6957 14.2273 42.5465 13.8324 42.5494 13.3551C42.5465 12.9517 42.6559 12.6023 42.8775 12.3068C43.1019 12.0085 43.413 11.7784 43.8107 11.6165C44.2113 11.4517 44.6729 11.3693 45.1957 11.3693C45.9627 11.3693 46.5664 11.5327 47.0067 11.8594C47.4499 12.1861 47.7241 12.6278 47.8292 13.1847ZM52.5103 11.4545V12.6477H48.7475V11.4545H52.5103ZM49.6765 9.88636H51.2191V16.0312C51.2191 16.2386 51.2504 16.3977 51.3129 16.5085C51.3782 16.6165 51.4634 16.6903 51.5685 16.7301C51.6737 16.7699 51.7901 16.7898 51.918 16.7898C52.0146 16.7898 52.1026 16.7827 52.1822 16.7685C52.2646 16.7543 52.3271 16.7415 52.3697 16.7301L52.6296 17.9361C52.5472 17.9645 52.4293 17.9957 52.2759 18.0298C52.1254 18.0639 51.9407 18.0838 51.7219 18.0895C51.3356 18.1009 50.9876 18.0426 50.6779 17.9148C50.3683 17.7841 50.1225 17.5824 49.9407 17.3097C49.7617 17.0369 49.6737 16.696 49.6765 16.2869V9.88636ZM56.6278 18.1278C55.9716 18.1278 55.4048 17.9915 54.9276 17.7188C54.4531 17.4432 54.0881 17.054 53.8324 16.5511C53.5767 16.0455 53.4489 15.4503 53.4489 14.7656C53.4489 14.0923 53.5767 13.5014 53.8324 12.9929C54.0909 12.4815 54.4517 12.0838 54.9148 11.7997C55.3778 11.5128 55.9219 11.3693 56.5469 11.3693C56.9503 11.3693 57.331 11.4347 57.6889 11.5653C58.0497 11.6932 58.3679 11.892 58.6435 12.1619C58.9219 12.4318 59.1406 12.7756 59.2997 13.1932C59.4588 13.608 59.5384 14.1023 59.5384 14.6761V15.1491H54.1733V14.1094H58.0597C58.0568 13.8139 57.9929 13.5511 57.8679 13.321C57.7429 13.0881 57.5682 12.9048 57.3438 12.7713C57.1222 12.6378 56.8636 12.571 56.5682 12.571C56.2528 12.571 55.9759 12.6477 55.7372 12.8011C55.4986 12.9517 55.3125 13.1506 55.179 13.3977C55.0483 13.642 54.9815 13.9105 54.9787 14.2031V15.1108C54.9787 15.4915 55.0483 15.8182 55.1875 16.0909C55.3267 16.3608 55.5213 16.5682 55.7713 16.7131C56.0213 16.8551 56.3139 16.9261 56.6491 16.9261C56.8736 16.9261 57.0767 16.8949 57.2585 16.8324C57.4403 16.767 57.598 16.6719 57.7315 16.5469C57.8651 16.4219 57.9659 16.267 58.0341 16.0824L59.4744 16.2443C59.3835 16.625 59.2102 16.9574 58.9545 17.2415C58.7017 17.5227 58.3778 17.7415 57.983 17.8977C57.5881 18.0511 57.1364 18.1278 56.6278 18.1278ZM66.0167 13.1847L64.6104 13.3381C64.5707 13.196 64.5011 13.0625 64.4016 12.9375C64.305 12.8125 64.1744 12.7116 64.0096 12.6349C63.8448 12.5582 63.6431 12.5199 63.4045 12.5199C63.0835 12.5199 62.8136 12.5895 62.5948 12.7287C62.3789 12.8679 62.2724 13.0483 62.2752 13.2699C62.2724 13.4602 62.342 13.6151 62.484 13.7344C62.6289 13.8537 62.8675 13.9517 63.1999 14.0284L64.3164 14.267C64.9357 14.4006 65.396 14.6122 65.6971 14.902C66.0011 15.1918 66.1545 15.571 66.1573 16.0398C66.1545 16.4517 66.0337 16.8153 65.7951 17.1307C65.5593 17.4432 65.2312 17.6875 64.8107 17.8636C64.3903 18.0398 63.9073 18.1278 63.3619 18.1278C62.5607 18.1278 61.9158 17.9602 61.4272 17.625C60.9386 17.2869 60.6474 16.8168 60.5536 16.2145L62.0579 16.0696C62.1261 16.3651 62.271 16.5881 62.4925 16.7386C62.7141 16.8892 63.0025 16.9645 63.3576 16.9645C63.7241 16.9645 64.0181 16.8892 64.2397 16.7386C64.4641 16.5881 64.5763 16.402 64.5763 16.1804C64.5763 15.9929 64.5039 15.8381 64.359 15.7159C64.217 15.5937 63.9954 15.5 63.6942 15.4347L62.5778 15.2003C61.9499 15.0696 61.4854 14.8494 61.1843 14.5398C60.8832 14.2273 60.734 13.8324 60.7369 13.3551C60.734 12.9517 60.8434 12.6023 61.065 12.3068C61.2894 12.0085 61.6005 11.7784 61.9982 11.6165C62.3988 11.4517 62.8604 11.3693 63.3832 11.3693C64.1502 11.3693 64.7539 11.5327 65.1942 11.8594C65.6374 12.1861 65.9116 12.6278 66.0167 13.1847ZM70.6978 11.4545V12.6477H66.935V11.4545H70.6978ZM67.864 9.88636H69.4066V16.0312C69.4066 16.2386 69.4379 16.3977 69.5004 16.5085C69.5657 16.6165 69.6509 16.6903 69.756 16.7301C69.8612 16.7699 69.9776 16.7898 70.1055 16.7898C70.2021 16.7898 70.2901 16.7827 70.3697 16.7685C70.4521 16.7543 70.5146 16.7415 70.5572 16.7301L70.8171 17.9361C70.7347 17.9645 70.6168 17.9957 70.4634 18.0298C70.3129 18.0639 70.1282 18.0838 69.9094 18.0895C69.5231 18.1009 69.1751 18.0426 68.8654 17.9148C68.5558 17.7841 68.31 17.5824 68.1282 17.3097C67.9492 17.0369 67.8612 16.696 67.864 16.2869V9.88636ZM76.8693 18L74.4062 9.27273H76.1065L77.679 15.6861H77.7599L79.4389 9.27273H80.9858L82.669 15.6903H82.7457L84.3182 9.27273H86.0185L83.5554 18H81.9957L80.2486 11.8764H80.1804L78.429 18H76.8693ZM88.2621 18.1321C87.8473 18.1321 87.4737 18.0582 87.1413 17.9105C86.8118 17.7599 86.5504 17.5384 86.3572 17.2457C86.1669 16.9531 86.0717 16.5923 86.0717 16.1634C86.0717 15.794 86.1399 15.4886 86.2763 15.2472C86.4126 15.0057 86.5987 14.8125 86.8345 14.6676C87.0703 14.5227 87.3359 14.4134 87.6314 14.3395C87.9297 14.2628 88.2379 14.2074 88.5561 14.1733C88.9396 14.1335 89.2507 14.098 89.4893 14.0668C89.728 14.0327 89.9013 13.9815 90.0092 13.9134C90.12 13.8423 90.1754 13.733 90.1754 13.5852V13.5597C90.1754 13.2386 90.0803 12.9901 89.8899 12.8139C89.6996 12.6378 89.4254 12.5497 89.0675 12.5497C88.6896 12.5497 88.3899 12.6321 88.1683 12.7969C87.9496 12.9616 87.8018 13.1562 87.7251 13.3807L86.2848 13.1761C86.3984 12.7784 86.5859 12.446 86.8473 12.179C87.1087 11.9091 87.4283 11.7074 87.8061 11.5739C88.1839 11.4375 88.6016 11.3693 89.0589 11.3693C89.3743 11.3693 89.6882 11.4062 90.0007 11.4801C90.3132 11.554 90.5987 11.6761 90.8572 11.8466C91.1158 12.0142 91.3232 12.2429 91.4794 12.5327C91.6385 12.8224 91.718 13.1847 91.718 13.6193V18H90.2351V17.1009H90.1839C90.0902 17.2827 89.9581 17.4531 89.7876 17.6122C89.62 17.7685 89.4084 17.8949 89.1527 17.9915C88.8999 18.0852 88.603 18.1321 88.2621 18.1321ZM88.6626 16.9986C88.9723 16.9986 89.2408 16.9375 89.468 16.8153C89.6953 16.6903 89.87 16.5256 89.9922 16.321C90.1172 16.1165 90.1797 15.8935 90.1797 15.652V14.8807C90.1314 14.9205 90.049 14.9574 89.9325 14.9915C89.8189 15.0256 89.6911 15.0554 89.549 15.081C89.407 15.1065 89.2663 15.1293 89.1271 15.1491C88.9879 15.169 88.8672 15.1861 88.7649 15.2003C88.5348 15.2315 88.3288 15.2827 88.147 15.3537C87.9652 15.4247 87.8217 15.5241 87.7166 15.652C87.6115 15.777 87.5589 15.9389 87.5589 16.1378C87.5589 16.4219 87.6626 16.6364 87.87 16.7812C88.0774 16.9261 88.3416 16.9986 88.6626 16.9986ZM93.9936 20.4418C93.7834 20.4418 93.5888 20.4247 93.4098 20.3906C93.2337 20.3594 93.093 20.321 92.9879 20.2756L93.3459 19.0781C93.6811 19.1747 93.9624 19.1903 94.1896 19.125C94.4197 19.0625 94.6087 18.8509 94.7564 18.4901L94.8885 18.1364L92.5149 11.4545H94.1513L95.6598 16.3977H95.728L97.2408 11.4545L98.8899 11.4631L96.2607 18.7926C96.1385 19.1335 95.9766 19.4276 95.7749 19.6747C95.5732 19.9219 95.326 20.1108 95.0334 20.2415C94.7436 20.375 94.397 20.4418 93.9936 20.4418Z" fill="#042F0A"/>
</svg>
